<svg width="24" height="24" viewBox="0 0 24 24" fill="none" xmlns="http://www.w3.org/2000/svg">
<rect width="24" height="24" rx="12" fill="black"/>
<path d="M12.0022 5.60156C10.264 5.60156 10.0459 5.60916 9.3632 5.64023C8.68186 5.67143 8.21679 5.7793 7.80985 5.93757C7.38891 6.10103 7.03184 6.3197 6.67611 6.67557C6.3201 7.03131 6.10143 7.38838 5.93743 7.80919C5.77876 8.21626 5.67076 8.68146 5.6401 9.36253C5.60956 10.0452 5.60156 10.2635 5.60156 12.0016C5.60156 13.7398 5.6093 13.9572 5.64023 14.6399C5.67156 15.3213 5.77943 15.7863 5.93757 16.1933C6.10117 16.6142 6.31984 16.9713 6.67571 17.327C7.03131 17.683 7.38838 17.9022 7.80905 18.0657C8.21626 18.224 8.68146 18.3318 9.36267 18.363C10.0453 18.3941 10.2633 18.4017 12.0014 18.4017C13.7396 18.4017 13.9571 18.3941 14.6398 18.363C15.3211 18.3318 15.7867 18.224 16.1939 18.0657C16.6147 17.9022 16.9713 17.683 17.3269 17.327C17.6829 16.9713 17.9016 16.6142 18.0656 16.1934C18.2229 15.7863 18.3309 15.3211 18.3629 14.6401C18.3936 13.9574 18.4016 13.7398 18.4016 12.0016C18.4016 10.2635 18.3936 10.0453 18.3629 9.36267C18.3309 8.68133 18.2229 8.21626 18.0656 7.80932C17.9016 7.38838 17.6829 7.03131 17.3269 6.67557C16.9709 6.31957 16.6149 6.1009 16.1935 5.93757C15.7855 5.7793 15.3202 5.67143 14.6389 5.64023C13.9562 5.60916 13.7388 5.60156 12.0002 5.60156H12.0022Z" fill="white"/>
<path fill-rule="evenodd" clip-rule="evenodd" d="M11.4304 6.7516C11.5419 6.75143 11.6618 6.75148 11.7912 6.75154L12.0045 6.7516C13.7134 6.7516 13.9159 6.75773 14.5907 6.7884C15.2147 6.81693 15.5534 6.9212 15.779 7.0088C16.0776 7.1248 16.2906 7.26347 16.5144 7.48747C16.7384 7.71148 16.8771 7.92481 16.9934 8.22348C17.081 8.44882 17.1854 8.78749 17.2138 9.41149C17.2445 10.0862 17.2511 10.2888 17.2511 11.9969C17.2511 13.7049 17.2445 13.9075 17.2138 14.5822C17.1853 15.2062 17.081 15.5449 16.9934 15.7702C16.8774 16.0689 16.7384 16.2816 16.5144 16.5054C16.2904 16.7294 16.0778 16.8681 15.779 16.9841C15.5536 17.0721 15.2147 17.1761 14.5907 17.2046C13.916 17.2353 13.7134 17.242 12.0045 17.242C10.2956 17.242 10.093 17.2353 9.41837 17.2046C8.79437 17.1758 8.4557 17.0716 8.22996 16.984C7.93129 16.868 7.71796 16.7293 7.49395 16.5053C7.26995 16.2813 7.13128 16.0685 7.01502 15.7697C6.92741 15.5444 6.82301 15.2057 6.79461 14.5817C6.76395 13.907 6.75781 13.7043 6.75781 11.9953C6.75781 10.2862 6.76395 10.0846 6.79461 9.40989C6.82315 8.78589 6.92741 8.44722 7.01502 8.22162C7.13102 7.92295 7.26995 7.70961 7.49395 7.48561C7.71796 7.26161 7.93129 7.12294 8.22996 7.00667C8.45556 6.91867 8.79437 6.81467 9.41837 6.786C10.0088 6.75933 10.2376 6.75133 11.4304 6.75V6.7516ZM15.4243 7.81277C15.0003 7.81277 14.6562 8.15637 14.6562 8.58051C14.6562 9.00451 15.0003 9.34852 15.4243 9.34852C15.8483 9.34852 16.1923 9.00451 16.1923 8.58051C16.1923 8.1565 15.8483 7.8125 15.4243 7.8125V7.81277ZM8.71875 11.9976C8.71875 10.1826 10.1903 8.71101 12.0053 8.71094C13.8204 8.71094 15.2916 10.1826 15.2916 11.9976C15.2916 13.8127 13.8205 15.2837 12.0055 15.2837C10.1904 15.2837 8.71875 13.8127 8.71875 11.9976Z" fill="black"/>
<path d="M12.0005 9.86719C13.1787 9.86719 14.1339 10.8223 14.1339 12.0005C14.1339 13.1787 13.1787 14.1339 12.0005 14.1339C10.8223 14.1339 9.86719 13.1787 9.86719 12.0005C9.86719 10.8223 10.8223 9.86719 12.0005 9.86719Z" fill="black"/>
</svg>
