<svg width="263" height="25" viewBox="0 0 263 25" fill="none" xmlns="http://www.w3.org/2000/svg">
<path opacity="0.8" fill-rule="evenodd" clip-rule="evenodd" d="M104.123 16.7906C104.123 17.0673 104.032 17.2518 103.849 17.3441C103.667 17.4363 103.393 17.5286 103.119 17.4363H101.385V16.0525H103.211C103.484 16.0525 103.667 16.0525 103.941 16.1448C104.032 16.3293 104.123 16.5138 104.123 16.7906ZM96.7314 16.0525H94.9063V17.6208H96.8227C97.3702 17.6208 97.7353 17.3441 97.7353 16.7906C97.644 16.3293 97.279 16.0525 96.7314 16.0525ZM123.652 17.0673C124.2 17.6208 124.382 18.3588 124.382 19.0968C124.382 20.9418 123.196 22.0489 121.097 22.0489H118.268C117.903 22.0489 117.538 21.7721 117.355 21.4031C116.717 21.8644 115.986 22.0489 115.165 22.0489H112.336C112.154 22.0489 112.062 22.0489 111.88 21.9566C111.789 22.0489 111.606 22.0489 111.424 22.0489H106.587C106.405 22.0489 106.313 22.0489 106.131 21.9566C105.948 22.0489 105.857 22.0489 105.675 22.0489H104.214C103.667 22.0489 103.211 21.5876 103.211 21.0341V19.7426H102.389V20.9418C102.389 21.4954 101.933 21.9566 101.385 21.9566H99.9254C99.3779 21.9566 98.9216 21.4954 98.9216 20.9418V19.3736C98.2828 19.7426 97.4615 19.9271 96.7314 19.9271H95.9101V20.9418C95.9101 21.4954 95.4538 21.9566 94.9063 21.9566H92.0774C91.8036 21.9566 91.5298 21.8644 91.3473 21.5876L90.2523 20.3883L89.1572 21.5876C88.9747 21.7721 88.7009 21.9566 88.4271 21.9566H82.678C82.1305 21.9566 81.6742 21.4954 81.6742 20.9418V14.761C81.6742 14.2075 82.1305 13.7463 82.678 13.7463H88.5184C88.7922 13.7463 89.0659 13.8385 89.2484 14.1153L90.3435 15.3145L91.4386 14.1153C91.6211 13.9308 91.8949 13.7463 92.1686 13.7463H96.8227C97.644 13.7463 98.374 13.9308 99.1041 14.2998C99.2866 13.9308 99.6516 13.7463 100.017 13.7463H103.393C104.123 13.654 104.944 13.8385 105.583 14.1153C105.675 14.1153 105.675 14.2075 105.766 14.2998C105.948 13.9308 106.313 13.7463 106.678 13.7463H111.515C111.88 13.7463 112.245 13.9308 112.336 14.2998C112.884 13.9308 113.614 13.7463 114.253 13.7463H117.173C117.629 13.7463 117.994 14.023 118.085 14.392C118.724 13.9308 119.454 13.654 120.184 13.7463H123.104C123.652 13.7463 124.108 14.2075 124.108 14.761V16.0525C124.108 16.5138 123.926 16.7906 123.652 17.0673C123.652 16.9751 123.652 16.9751 123.652 17.0673ZM99.1953 16.8828C99.1953 15.13 97.9178 14.8533 96.7314 14.8533H92.0774L90.2523 16.8828L88.4271 14.8533H82.5867V21.0341H88.3359L90.161 19.0046L91.9861 21.0341H94.8151V19.0046H96.6402C97.9178 18.9123 99.1953 18.5433 99.1953 16.8828ZM104.762 18.0821C105.401 17.8053 105.857 17.1596 105.766 16.4215C105.766 15.868 105.492 15.3145 105.036 15.0378C104.488 14.761 103.849 14.6688 103.302 14.761H99.9254V20.9418H101.385V18.7278H102.937C103.484 18.7278 103.758 18.8201 104.032 19.0046C104.306 19.2813 104.306 19.8348 104.306 20.2038V20.9418H105.766V19.7426C105.766 19.3736 105.766 18.9123 105.492 18.6356C105.218 18.3588 105.036 18.2666 104.762 18.0821ZM111.424 14.8533H106.587V21.0341H111.424V19.7426H108.047V18.4511H111.332V17.1596H108.047V16.0525H111.424V14.8533ZM117.447 19.0046C117.447 18.5433 117.355 18.0821 116.99 17.7131C116.534 17.3441 115.895 17.1596 115.348 17.2518H114.526C114.344 17.2518 114.161 17.2518 113.979 17.1596C113.705 17.0673 113.614 16.7906 113.705 16.5138C113.705 16.4215 113.796 16.3293 113.888 16.3293C114.07 16.237 114.253 16.237 114.435 16.237H117.082V14.9455H114.161C112.61 14.9455 112.062 15.868 112.062 16.7906C112.062 18.7278 113.796 18.6356 115.165 18.7278C115.348 18.7278 115.53 18.7278 115.713 18.8201C115.804 18.9123 115.895 19.0968 115.895 19.1891C115.895 19.3736 115.804 19.4658 115.713 19.5581C115.53 19.6503 115.348 19.7426 115.165 19.7426H112.336V21.0341H115.165C116.625 21.0341 117.447 20.3883 117.447 19.0046ZM123.378 19.0046C123.378 18.5433 123.287 18.0821 122.922 17.7131C122.466 17.3441 121.827 17.1596 121.279 17.2518H120.458C120.276 17.2518 120.093 17.2518 119.91 17.1596C119.637 17.0673 119.545 16.7906 119.637 16.5138C119.637 16.4215 119.728 16.3293 119.819 16.3293C120.002 16.237 120.184 16.237 120.367 16.237H123.013V14.9455H120.093C118.542 14.9455 117.994 15.868 117.994 16.7906C117.994 18.7278 119.728 18.6356 121.097 18.7278C121.279 18.7278 121.462 18.7278 121.644 18.8201C121.736 18.9123 121.827 19.0968 121.827 19.1891C121.827 19.3736 121.736 19.4658 121.644 19.5581C121.462 19.6503 121.279 19.7426 121.097 19.7426H118.268V21.0341H121.097C122.557 21.0341 123.378 20.3883 123.378 19.0046ZM109.234 5.25919L108.23 7.74996H110.237L109.234 5.25919ZM97.644 6.7352C97.8265 6.64295 97.9178 6.3662 97.9178 6.1817C97.9178 5.99719 97.8265 5.72044 97.644 5.62819C97.4615 5.53594 97.1877 5.53594 96.9139 5.53594H95.0888V6.9197H96.8227C97.1877 6.9197 97.3702 6.82745 97.644 6.7352ZM93.4462 20.3883V15.4068L91.1648 17.8053L93.4462 20.3883ZM81.8567 11.44C81.4917 11.44 81.1266 11.1632 80.9441 10.7942L80.7616 10.333C80.7616 10.8865 80.3053 11.3477 79.7578 11.3477H76.8376C76.4726 11.3477 76.1076 11.071 75.925 10.702L75.6513 9.96398H74.0087L73.7349 10.702C73.5524 11.071 73.1874 11.3477 72.8223 11.3477H71.271C70.7235 11.3477 70.2672 10.8865 70.2672 10.333C70.2672 10.2407 70.2672 10.0562 70.3584 9.96398L73.0049 3.78317C73.1874 3.41417 73.5524 3.13742 73.9174 3.13742H75.7425C76.1076 3.13742 76.4726 3.41417 76.6551 3.78317L77.2026 5.07468V4.15218C77.2026 3.59867 77.6589 3.13742 78.2065 3.13742H80.5791C80.9441 3.13742 81.3092 3.41417 81.4917 3.69092L82.4042 5.81269L83.2255 3.78317C83.408 3.41417 83.7731 3.13742 84.1381 3.13742H86.6933C86.8758 3.13742 87.0583 3.22967 87.2408 3.32192C87.4233 3.22967 87.6058 3.13742 87.7883 3.13742H92.6249C92.8074 3.13742 92.9899 3.22967 93.1724 3.32192C93.355 3.22967 93.5375 3.13742 93.72 3.13742H97.0965C97.9178 3.04516 98.6478 3.22967 99.3779 3.59867C99.4691 3.59867 99.4691 3.69092 99.5604 3.78317C99.7429 3.41417 100.108 3.22967 100.473 3.22967H101.933C102.389 3.22967 102.846 3.59867 102.937 4.05992C103.667 3.41417 104.671 3.13742 105.675 3.22967H107.043C107.226 3.22967 107.5 3.32192 107.682 3.41417C107.865 3.32192 108.047 3.22967 108.321 3.22967H110.511C110.876 3.22967 111.241 3.50642 111.424 3.87542L111.971 5.16694V4.24443C111.971 3.69092 112.427 3.22967 112.975 3.22967H115.165C115.53 3.22967 115.804 3.41417 115.986 3.69092L116.717 4.89018V4.24443C116.717 3.69092 117.173 3.22967 117.72 3.22967H119.18C119.728 3.22967 120.184 3.69092 120.184 4.24443V10.4252C120.184 10.9787 119.728 11.44 119.18 11.44H117.082C116.717 11.44 116.443 11.2555 116.26 10.9787L115.348 9.50273V10.5175C115.348 11.071 114.891 11.5322 114.344 11.5322H111.332C110.967 11.5322 110.602 11.2555 110.42 10.8865L110.146 10.1485H108.503L108.23 10.8865C108.047 11.2555 107.682 11.5322 107.317 11.5322H105.583C104.671 11.5322 103.667 11.2555 102.937 10.702C102.846 11.1632 102.481 11.5322 101.933 11.5322H100.382C100.199 11.5322 100.108 11.5322 99.9254 11.44C99.7429 11.5322 99.6516 11.5322 99.4691 11.5322H98.009C97.4615 11.5322 97.0052 11.071 97.0052 10.5175V9.41048H96.1839V10.6097C96.1839 11.1632 95.7276 11.6245 95.1801 11.6245H93.72C93.5375 11.6245 93.355 11.5322 93.1724 11.44C92.9899 11.5322 92.8074 11.6245 92.6249 11.6245H87.7883C87.6058 11.6245 87.4233 11.5322 87.2408 11.44C87.0583 11.5322 86.8758 11.6245 86.6933 11.6245H85.2332C84.6856 11.6245 84.2294 11.1632 84.2294 10.6097L84.0468 11.071C83.8643 11.44 83.4993 11.7168 83.1343 11.7168L81.8567 11.44ZM102.572 7.38096C102.481 8.21122 102.754 9.13372 103.393 9.68723C104.032 10.1485 104.762 10.4252 105.492 10.333H107.226L107.773 8.94922H110.785L111.332 10.333H114.253V5.72044L116.99 10.333H119.089V4.24443H117.629V8.48797L115.074 4.24443H112.884V10.0562L110.42 4.24443H108.23L106.131 9.04147H105.492C105.127 9.04147 104.762 8.94922 104.488 8.76472C104.214 8.30347 104.032 7.84221 104.123 7.28871C104.123 6.82745 104.214 6.27395 104.579 5.90494C104.853 5.62819 105.31 5.44369 105.675 5.53594H107.043V4.24443H105.675C104.853 4.15218 104.032 4.42893 103.484 4.98243C102.754 5.62819 102.481 6.45845 102.572 7.38096ZM105.583 6.5507C105.218 6.5507 105.218 6.5507 105.127 6.64295C105.036 6.82745 105.036 7.1042 105.036 7.28871C105.036 7.56546 105.036 7.74996 105.127 8.02671H105.401L106.04 6.5507H105.583ZM100.382 4.24443V10.4252H101.842V4.24443H100.382ZM93.6287 10.4252H95.0888V8.11897H96.6402C97.0052 8.02671 97.3702 8.11896 97.7353 8.39572C97.9178 8.76472 98.009 9.22598 98.009 9.59498V10.333H99.4691V9.13372C99.5604 8.76472 99.4691 8.30347 99.1953 8.02671C99.0128 7.74996 98.7391 7.65771 98.4653 7.47321C99.1041 7.19646 99.4691 6.5507 99.4691 5.81269C99.4691 5.25919 99.1953 4.70568 98.7391 4.42893C98.1915 4.15218 97.5527 4.05992 97.0052 4.15218H93.6287V10.4252ZM87.7883 4.24443V10.4252H92.6249V9.13372H89.2484V7.84221H92.5337V6.64295H89.2484V5.53594H92.6249V4.24443H87.7883ZM81.8567 10.4252H83.1343L85.2332 5.53594V10.333H86.6933V4.24443H84.2294L82.4955 8.39572L80.5791 4.24443H78.2065V10.0562L75.7425 4.24443H73.5524L70.906 10.4252H72.4573L73.0049 9.04147H76.0163L76.5638 10.4252H79.484V5.53594L81.8567 10.4252ZM84.0468 16.1448V17.2518H87.2408V18.4511H84.0468V19.6503H87.6058L89.2484 17.8053L87.6971 16.0525H84.0468V16.1448ZM73.6436 7.74996H75.6513L74.6475 5.25919L73.6436 7.74996ZM166.086 17.0673C164.9 16.0525 163.987 14.8533 163.348 13.4695C163.075 12.8238 162.801 12.0858 162.618 11.3477C162.436 10.6097 162.345 9.77948 162.436 9.04147C162.527 6.3662 163.622 3.87542 165.447 2.0304L165.904 1.56915L165.995 1.4769C164.717 0.55439 163.166 0.0931351 161.615 0.000884209C156.504 -0.368119 152.124 3.50642 151.668 8.58022V9.31823C151.668 11.1632 152.215 12.916 153.219 14.4843C156.139 18.7278 161.797 19.9271 166.086 17.0673ZM167.82 23.6171V23.8939H165.995C165.995 24.2629 166.36 24.5396 166.725 24.5396C166.999 24.5396 167.272 24.4474 167.455 24.2629L167.729 24.6319C167.455 24.9086 167.09 25.0009 166.725 25.0009C165.995 25.0009 165.447 24.4474 165.447 23.7094C165.447 22.9714 165.995 22.4179 166.725 22.4179C167.272 22.4179 167.82 22.9714 167.82 23.6171ZM167.272 23.5249C167.272 23.1559 166.999 22.8791 166.634 22.9714C166.269 22.9714 165.995 23.2481 165.995 23.5249H167.272ZM171.379 22.8791C171.653 22.8791 171.835 22.9714 172.018 23.0636L172.291 22.6024C172.018 22.4179 171.744 22.3256 171.379 22.3256H171.288C170.649 22.3256 170.101 22.9714 170.101 23.6171V23.7094C170.101 24.3551 170.74 24.9086 171.379 24.9086C171.653 24.9086 172.018 24.8164 172.291 24.6319L172.018 24.1706C171.835 24.3551 171.653 24.3551 171.379 24.3551C171.014 24.3551 170.649 23.9861 170.649 23.6171C170.558 23.3404 170.923 22.9714 171.379 22.8791ZM169.554 22.4179C169.28 22.4179 169.006 22.5101 168.915 22.7869V22.5101H168.367V24.9086H168.915V23.5249C168.915 23.1559 169.098 22.8791 169.463 22.8791C169.554 22.8791 169.645 22.8791 169.828 22.9714L170.01 22.5101C169.828 22.4179 169.645 22.4179 169.554 22.4179ZM176.215 22.7869V22.5101H175.668V24.9086H176.215V23.5249C176.215 23.1559 176.398 22.8791 176.763 22.8791C176.854 22.8791 176.946 22.8791 177.128 22.9714L177.311 22.5101C177.219 22.5101 177.037 22.4179 176.946 22.4179C176.58 22.4179 176.398 22.5101 176.215 22.7869ZM179.409 21.4953H179.957V24.9086H179.409V24.6319C179.227 24.9086 178.953 25.0009 178.679 25.0009C177.949 25.0009 177.402 24.4474 177.402 23.7094C177.402 22.9714 177.949 22.4179 178.679 22.4179C178.953 22.4179 179.227 22.5101 179.409 22.7869V21.4953ZM179.409 23.8016C179.409 23.4326 179.136 23.0636 178.679 22.9714C178.314 22.9714 177.949 23.2481 177.949 23.7094C177.949 24.0784 178.223 24.4474 178.679 24.5396C179.044 24.5396 179.409 24.1706 179.409 23.8016ZM174.482 22.5101H175.029V24.9086H174.482V24.6319C174.299 24.9086 174.025 25.0009 173.752 25.0009C173.022 25.0009 172.474 24.4474 172.474 23.7094C172.474 22.9714 173.022 22.4179 173.752 22.4179C174.025 22.4179 174.299 22.5101 174.482 22.7869V22.5101ZM174.482 23.8016C174.482 23.4326 174.208 23.0636 173.752 22.9714C173.387 22.9714 173.022 23.2481 173.022 23.7094C173.022 24.0784 173.295 24.4474 173.752 24.5396C174.117 24.5396 174.482 24.1706 174.482 23.8016ZM167.272 1.56915C167.272 1.56915 167.272 1.6614 167.364 1.75365C168.459 2.67616 169.371 3.87542 170.01 5.25919C170.74 6.9197 171.014 8.76472 170.831 10.5175C170.74 11.3477 170.558 12.178 170.284 12.916C169.828 14.1153 169.189 15.13 168.367 16.0525C168.094 16.4215 167.729 16.6983 167.364 17.0673L167.272 17.1596C170.375 19.1891 174.39 19.1891 177.402 17.1596C181.691 14.2998 182.786 8.58022 180.048 4.24443C177.219 -0.0913668 171.47 -1.29063 167.272 1.56915ZM164.535 24.4474C164.261 24.4474 164.17 24.2629 164.17 24.0784V22.9714H164.991V22.5101H164.17V21.7721H163.622V22.5101H163.166V22.9714H163.622V24.0784C163.622 24.6319 163.805 25.0009 164.443 25.0009C164.717 25.0009 164.9 24.9086 165.082 24.8164L164.9 24.3551C164.808 24.4474 164.626 24.4474 164.535 24.4474ZM163.075 9.31823C163.075 12.178 164.352 14.9455 166.634 16.6983C166.634 16.6983 166.725 16.6983 166.725 16.6061C168.824 14.8533 170.101 12.2703 170.193 9.50273C170.193 8.94922 170.193 8.30347 170.01 7.74996C169.828 6.9197 169.645 6.08944 169.189 5.25919C168.641 4.05992 167.729 2.95291 166.725 2.0304C166.725 2.0304 166.634 1.93815 166.542 1.93815C164.443 3.78317 163.075 6.45845 163.075 9.31823ZM159.516 22.5101H160.063V24.9086H159.516V24.6319C159.333 24.9086 159.059 25.0009 158.786 25.0009C158.056 25.0009 157.508 24.4474 157.508 23.7094C157.508 22.9714 158.056 22.4179 158.786 22.4179C159.059 22.4179 159.333 22.5101 159.516 22.7869V22.5101ZM159.607 23.8016C159.607 23.4326 159.333 23.0636 158.877 22.9714C158.512 22.9714 158.147 23.2481 158.147 23.7094C158.147 24.0784 158.421 24.4474 158.877 24.5396C159.242 24.5396 159.607 24.1706 159.607 23.8016ZM157.143 23.2481C157.143 22.7869 156.687 22.3256 156.23 22.4179C155.865 22.4179 155.592 22.6024 155.409 22.8791C155.227 22.6024 154.953 22.4179 154.588 22.4179C154.314 22.4179 154.04 22.5101 153.858 22.7869V22.5101H153.31V24.9086H153.858V23.4326C153.858 23.1559 154.132 22.8791 154.497 22.8791C154.862 22.8791 155.044 23.0636 155.044 23.5249V24.9086H155.592V23.4326C155.592 23.1559 155.865 22.8791 156.23 22.8791C156.595 22.8791 156.778 23.0636 156.778 23.5249V24.9086H157.325V23.3404C157.143 23.3404 157.143 23.3404 157.143 23.2481ZM161.888 23.4326H161.615C161.341 23.4326 161.158 23.3404 161.158 23.1559C161.158 22.9714 161.341 22.8791 161.615 22.8791C161.888 22.8791 162.162 22.9714 162.345 23.0636L162.618 22.6024C162.345 22.4179 161.98 22.3256 161.615 22.3256C160.976 22.3256 160.611 22.6024 160.611 23.1559C160.611 23.5249 160.884 23.8016 161.432 23.8939H161.706C161.98 23.8939 162.162 23.9861 162.162 24.1706C162.162 24.3551 161.98 24.4474 161.615 24.4474C161.341 24.4474 161.067 24.3551 160.793 24.1706L160.519 24.6319C160.793 24.8164 161.158 25.0009 161.615 24.9086C162.345 24.9086 162.71 24.5396 162.71 24.0784C162.801 23.8016 162.436 23.5249 161.888 23.4326ZM260.262 6.3662H260.719V7.65771H260.992V6.3662H261.449V6.1817H260.262V6.3662ZM262.726 6.08944L262.361 7.1042C262.27 7.28871 262.27 7.28871 262.27 7.38096C262.179 7.28871 262.179 7.28871 262.179 7.19646L261.814 6.1817H261.54V7.56546H261.631V6.27395L262.087 7.56546H262.361L262.817 6.27395V7.56546H263V6.08944H262.726ZM234.528 8.39572L231.699 13.3773L231.243 8.39572H228.414L229.6 17.1596L227.593 20.9418H230.787L237.54 8.39572H234.528ZM227.228 11.5322L225.95 17.3441H223.121L223.304 16.3293C221.844 17.8976 218.011 17.8053 218.65 14.2998C219.106 12.178 221.205 11.5322 224.307 11.5322C224.49 10.5175 223.851 10.333 222.847 10.333C221.935 10.4252 221.022 10.6097 220.11 10.9787L220.383 8.94922C221.387 8.67247 222.482 8.48797 223.577 8.39572C225.494 8.30347 227.684 9.13372 227.228 11.5322ZM223.942 13.8385H223.212C222.665 13.8385 221.844 13.8385 221.57 14.392C221.113 15.13 221.661 15.499 222.3 15.499C223.03 15.4068 223.577 15.13 223.76 14.392C223.76 14.1153 223.851 13.7463 223.942 13.8385ZM219.38 10.2407C219.015 12.3625 217.189 13.8385 215.091 13.7463H212.9L212.079 17.3441H208.976L211.258 5.72044H216.551C218.011 5.72044 219.927 7.65771 219.38 10.2407ZM216.459 9.77948C216.642 9.22598 216.368 8.67247 215.821 8.48797C215.638 8.39572 215.547 8.39572 215.364 8.39572H213.904L213.265 11.071H214.726C215.547 11.071 216.277 10.5175 216.459 9.77948ZM254.787 11.5322L253.509 17.3441H250.68L250.863 16.3293C249.403 17.8976 245.479 17.8053 246.118 14.2998C246.574 12.178 248.673 11.5322 251.867 11.5322C252.049 10.5175 251.41 10.333 250.407 10.333C249.494 10.4252 248.582 10.6097 247.669 10.9787L247.943 8.94922C249.038 8.67247 250.133 8.48797 251.228 8.39572C253.053 8.30347 255.152 9.13372 254.787 11.5322ZM251.502 13.8385H250.772C250.133 13.8385 249.312 13.8385 249.038 14.392C248.673 15.13 249.22 15.499 249.859 15.499C250.589 15.4068 251.228 15.13 251.319 14.392C251.319 14.1153 251.41 13.7463 251.502 13.8385ZM246.848 10.2407C246.483 12.3625 244.658 13.8385 242.559 13.7463H240.368L239.547 17.3441H236.444L238.726 5.72044H243.927C245.479 5.72044 247.304 7.65771 246.848 10.2407ZM243.836 9.77948C244.019 9.22598 243.745 8.67247 243.197 8.48797C243.015 8.39572 242.924 8.39572 242.741 8.39572H241.281L240.642 11.071H242.011C242.924 11.071 243.654 10.5175 243.836 9.77948ZM254.878 17.3441H257.707L260.08 5.72044H257.16L254.878 17.3441ZM42.6166 16.8828C42.4341 16.9751 42.4341 16.9751 42.3428 16.9751H39.4226C39.3314 16.3293 39.1489 15.6835 39.0576 15.13C39.0576 15.0378 39.0576 15.0378 38.9663 15.0378H34.6773C34.5861 15.0378 34.5861 15.0378 34.5861 15.13C34.5861 15.2223 34.4948 15.4068 34.4948 15.499C34.4035 15.7758 34.3123 16.0525 34.221 16.237C34.1298 16.5138 34.0385 16.6983 33.9473 16.9751C33.9473 17.0673 33.856 17.0673 33.856 17.0673H30.297V16.9751C30.4795 16.4215 30.7533 15.868 30.9358 15.3145C31.1183 14.8533 31.3008 14.392 31.4833 14.023L31.9396 12.916C31.9396 12.8238 32.0309 12.7315 32.0309 12.7315L32.4872 11.6245C32.5784 11.44 32.6697 11.2555 32.6697 11.071L33.0347 10.2407C33.0347 10.1485 33.0347 10.1485 33.126 10.0562L33.5822 8.85697C33.5822 8.85697 33.5822 8.76472 33.6735 8.76472L34.1298 7.74996C34.1298 7.65771 34.221 7.56546 34.221 7.47321L34.6773 6.3662C34.6773 6.27395 34.7686 6.27395 34.7686 6.1817L35.4074 4.61343C35.4986 4.24443 35.7724 3.96767 36.0461 3.78317H36.1374C36.3199 3.69092 36.5937 3.59867 36.8675 3.59867H39.9702C40.0614 3.59867 40.0614 3.59867 40.0614 3.69092C40.4264 5.25919 40.7002 6.9197 41.0652 8.48797L42.1603 14.023C42.2516 14.4843 42.3428 14.8533 42.4341 15.3145C42.4341 15.6835 42.5253 16.237 42.6166 16.8828ZM38.4188 12.178C38.3275 11.9935 38.3275 11.7168 38.2363 11.5322C37.9625 10.333 37.6888 9.04147 37.5062 7.84221V7.56546C37.5062 7.38096 37.415 7.28871 37.415 7.19646C37.2325 7.65771 37.1412 8.02671 36.9587 8.48797V8.67247L36.4112 10.333V10.5175C36.3199 10.7942 36.1374 11.1632 36.0461 11.44V11.6245C35.9549 11.809 35.9549 11.9935 35.8636 12.178C35.8636 12.2703 35.8636 12.2703 35.9549 12.2703H38.4188C38.3275 12.0858 38.4188 12.0858 38.4188 12.178ZM14.966 6.27395C15.0573 6.08944 15.1485 5.90494 15.1485 5.81269C15.331 5.53594 15.4223 5.25919 15.5135 4.98243C15.6048 4.89018 15.6048 4.79793 15.696 4.61343C15.696 4.52118 15.7873 4.42893 15.7873 4.33668L16.1523 3.41417H12.5021L12.4108 3.69092L12.1371 4.24443C12.1371 4.61343 11.9545 4.89018 11.8633 5.16694C11.772 5.44369 11.5895 5.72044 11.4983 5.99719C11.407 6.27395 11.3158 6.5507 11.2245 6.7352L10.677 8.11897C10.677 8.21122 10.5857 8.30347 10.5857 8.39572L10.2207 9.41048L9.67314 10.7942C9.67314 10.8865 9.58189 10.8865 9.58189 10.9787L9.12561 12.2703L9.03435 12.547V12.4548C8.94309 12.178 8.9431 11.809 8.85184 11.5322C8.76058 11.2555 8.76058 11.071 8.66933 10.7942V10.702L8.48681 9.59498L7.93928 6.82745C7.75677 6.27395 7.66551 5.53594 7.483 4.79793C7.39174 3.96767 6.75295 3.41417 5.93164 3.41417H0.0912561C0.0912561 3.59867 0 3.69092 0 3.78317V3.87542L0.547536 3.96767C1.00382 4.05992 1.4601 4.24443 1.91638 4.33668L2.2814 4.52118C2.73768 4.70568 3.19396 4.89018 3.55899 5.07468C3.65024 5.16694 3.83276 5.25919 3.92401 5.44369C4.01527 5.62819 4.19778 5.90494 4.19778 6.1817C4.38029 6.9197 4.5628 7.65771 4.83657 8.48797L6.29667 14.023C6.57044 14.9455 6.75295 15.868 7.02672 16.7906C7.02672 16.7906 7.02672 16.8828 7.11797 16.8828H10.7682C10.7682 16.7906 10.8595 16.6983 10.8595 16.5138C10.9507 16.3293 10.9507 16.237 11.042 16.0525C11.1332 15.7758 11.3158 15.499 11.407 15.13L11.9545 13.8385V13.7463L12.5021 12.547L12.7759 11.9935C12.8671 11.7168 12.9584 11.44 13.1409 11.1632C13.2321 10.9787 13.3234 10.7942 13.3234 10.702C13.4146 10.4252 13.5972 10.1485 13.6884 9.87173V9.77948L13.7797 9.68723V9.59498L14.1447 8.30347C14.2359 8.02671 14.4185 7.74996 14.5097 7.47321C14.6922 7.1042 14.8747 6.64295 14.966 6.27395ZM21.0802 3.41417H17.6124V3.59867L17.3387 4.98243C17.2474 5.25919 17.2474 5.44369 17.1561 5.72044L16.8824 7.1042C16.8824 7.19646 16.7911 7.38096 16.7911 7.47321C16.7911 7.65771 16.6999 7.74996 16.6999 7.93446L16.4261 9.41048C16.4261 9.50273 16.3348 9.68723 16.3348 9.77948L16.1523 10.7942C16.0611 11.1632 15.9698 11.6245 15.8786 11.9935L15.696 12.916C15.696 13.1005 15.6048 13.285 15.6048 13.4695L15.331 14.761C15.331 14.8533 15.2398 14.9455 15.2398 15.0378L14.8747 16.6983V16.7906H18.3425V16.6061C18.4337 16.3293 18.4337 16.0525 18.525 15.6835C18.525 15.499 18.6162 15.3145 18.6162 15.13L18.89 13.7463L18.9813 13.3773L19.0725 13.0083V12.8238L19.3463 11.6245C19.4375 11.1632 19.5288 10.6097 19.6201 10.1485C19.7113 9.96398 19.7113 9.68723 19.8026 9.50273C19.8938 8.85697 20.0763 8.30347 20.1676 7.65771C20.2588 7.38096 20.2588 7.01195 20.3501 6.7352C20.5326 5.90494 20.7151 4.98243 20.8976 4.15218C20.9889 3.96767 21.0802 3.69092 21.0802 3.41417ZM29.567 10.2407C29.0194 9.68723 28.3806 9.22598 27.7418 8.94922C27.2856 8.67247 26.8293 8.48797 26.373 8.21122H26.2817C26.0992 8.11896 25.9167 7.93446 25.8255 7.74996C25.643 7.56546 25.643 7.38096 25.643 7.1042C25.643 7.01195 25.7342 6.82745 25.8255 6.7352C26.008 6.45845 26.373 6.27395 26.6468 6.1817C26.8293 6.08944 27.1031 6.08944 27.2856 6.08944H28.6544C28.9282 6.08944 29.2019 6.1817 29.4757 6.27395C29.7495 6.3662 30.1145 6.45845 30.3883 6.64295H30.4795L30.662 5.90494C30.7533 5.62819 30.7533 5.44369 30.8446 5.16694C30.9358 4.70568 31.0271 4.24443 31.0271 3.87542C31.0271 3.78317 31.0271 3.78317 30.9358 3.78317C30.8446 3.78317 30.8446 3.69092 30.7533 3.69092L29.6582 3.41417H29.567C29.0194 3.32192 28.4719 3.22967 27.9244 3.22967H27.0118C26.8293 3.22967 26.738 3.22967 26.5555 3.32192C26.1905 3.32192 25.9167 3.41417 25.643 3.50642C25.3692 3.59867 25.0042 3.69092 24.6391 3.87542C24.3654 3.96767 24.0916 4.15218 23.8178 4.33668C23.5441 4.52118 23.2703 4.79793 22.9965 5.07468C22.9053 5.16694 22.9053 5.25919 22.814 5.25919C22.6315 5.53594 22.449 5.81269 22.3577 6.08944V6.1817C22.1752 6.5507 22.084 7.01195 22.084 7.38096C21.9927 7.84221 22.084 8.39572 22.2665 8.85697C22.449 9.41048 22.814 9.77948 23.179 10.1485C23.4528 10.4252 23.8178 10.702 24.1829 10.8865C24.4566 11.071 24.7304 11.1632 25.0042 11.3477C25.0954 11.44 25.2779 11.44 25.3692 11.5322C25.5517 11.6245 25.643 11.7168 25.8255 11.809C26.008 11.9013 26.2817 12.0858 26.4643 12.2703C26.6468 12.4548 26.738 12.6393 26.8293 12.916V13.1005C26.8293 13.285 26.738 13.5618 26.5555 13.7463C26.373 13.9308 26.1905 14.023 26.008 14.1153C25.9167 14.2075 25.7342 14.2075 25.643 14.2075C25.2779 14.2998 24.9129 14.2998 24.6391 14.2998H24.1829C23.8178 14.2998 23.4528 14.2075 22.9965 14.1153C22.814 14.1153 22.6315 14.023 22.449 14.023C22.2665 13.9308 22.084 13.9308 21.9015 13.8385C21.6277 13.7463 21.4452 13.654 21.1714 13.5618C21.1714 13.5618 21.0802 13.4695 21.0802 13.5618C20.9889 13.8385 20.9889 14.1153 20.8976 14.392C20.7151 15.0378 20.6239 15.7758 20.4414 16.4215V16.5138C20.7151 16.6061 21.0802 16.7906 21.4452 16.8828C21.5364 16.8828 21.7189 16.9751 21.8102 16.9751C21.9015 16.9751 21.9927 17.0673 22.084 17.0673C22.3577 17.1596 22.6315 17.1596 22.9053 17.1596H25.0954C25.3692 17.1596 25.7342 17.0673 26.008 17.0673C26.1905 17.0673 26.373 16.9751 26.4643 16.9751C26.8293 16.8828 27.1031 16.7906 27.4681 16.6983C27.6506 16.6061 27.9244 16.5138 28.1069 16.3293H28.1981C28.4719 16.1448 28.7457 15.9603 28.9282 15.7758C29.2019 15.499 29.4757 15.2223 29.6582 14.8533C30.1145 14.1153 30.297 13.285 30.2058 12.4548C30.3883 11.5322 30.1145 10.7942 29.567 10.2407Z" fill="#666666"/>
</svg>
