<svg width="24" height="24" viewBox="0 0 24 24" fill="none" xmlns="http://www.w3.org/2000/svg">
<rect width="24" height="24" rx="12" fill="black"/>
<path d="M18.1341 9.03817C17.9869 8.47267 17.5531 8.02736 17.0024 7.87623C16.0043 7.60156 12.0016 7.60156 12.0016 7.60156C12.0016 7.60156 7.99887 7.60156 7.00069 7.87623C6.44993 8.02736 6.01618 8.47267 5.86898 9.03817C5.60156 10.0631 5.60156 12.2016 5.60156 12.2016C5.60156 12.2016 5.60156 14.34 5.86898 15.365C6.01618 15.9305 6.44993 16.3758 7.00069 16.527C7.99887 16.8016 12.0016 16.8016 12.0016 16.8016C12.0016 16.8016 16.0043 16.8016 17.0024 16.527C17.5531 16.3758 17.9869 15.9305 18.1341 15.365C18.4016 14.34 18.4016 12.2016 18.4016 12.2016C18.4016 12.2016 18.4016 10.0631 18.1341 9.03817Z" fill="white"/>
<path d="M10.8047 14.4062V10.4062L14.0047 12.4063L10.8047 14.4062Z" fill="black"/>
</svg>
