<svg width="19" height="18" viewBox="0 0 19 18" fill="none" xmlns="http://www.w3.org/2000/svg">
<path d="M9.77728 0.230779L12.4622 5.68903L18.4642 6.56451C18.5403 6.57584 18.6118 6.60821 18.6706 6.65797C18.7294 6.70774 18.7731 6.77292 18.7968 6.84619C18.8206 6.91945 18.8234 6.99789 18.8049 7.07266C18.7865 7.14743 18.7475 7.21557 18.6925 7.2694L14.3502 11.5171L15.3754 17.5162C15.3887 17.592 15.3804 17.6701 15.3515 17.7414C15.3226 17.8128 15.2743 17.8746 15.2121 17.9199C15.1499 17.9652 15.0762 17.9922 14.9994 17.9978C14.9227 18.0034 14.8459 17.9873 14.7777 17.9515L9.40909 15.1197L4.04043 17.9523C3.97236 17.9883 3.89556 18.0044 3.81876 17.999C3.74196 17.9935 3.66824 17.9665 3.60598 17.9212C3.54372 17.8759 3.49542 17.8141 3.46656 17.7427C3.4377 17.6713 3.42945 17.5933 3.44273 17.5174L4.46794 11.5171L0.124497 7.2694C0.0694237 7.21557 0.0304737 7.14743 0.0120329 7.07266C-0.00640796 6.99789 -0.00360708 6.91945 0.0201201 6.84619C0.0438473 6.77292 0.0875583 6.70774 0.146331 6.65797C0.205103 6.60821 0.276602 6.57584 0.352776 6.56451L6.35473 5.68903L9.0409 0.230779C9.0744 0.161612 9.1267 0.103279 9.19182 0.0624633C9.25694 0.0216477 9.33224 0 9.40909 0C9.48594 0 9.56124 0.0216477 9.62636 0.0624633C9.69148 0.103279 9.74378 0.161612 9.77728 0.230779Z" fill="#FFC107"/>
</svg>
