<svg width="80" height="79" viewBox="0 0 80 79" fill="none" xmlns="http://www.w3.org/2000/svg">
<path d="M68.2185 67.5197C67.2363 66.1035 61.9211 59.4206 48.4397 58.1766V56.5551C49.2905 56.4411 49.9482 55.72 49.9482 54.8387V49.9375H62.2925C65.7931 49.9375 68.6413 47.0894 68.6413 43.5879V41.2861C68.6413 37.7855 65.7931 34.9364 62.2925 34.9364H37.6987H36.2972V32.8921H43.9631C46.8095 32.8921 49.1252 30.5763 49.1252 27.7299V5.16219C49.1252 2.31664 46.8095 0 43.9631 0H22.4792H19.0839H18.2653C15.8704 0 13.9226 1.94778 13.9226 4.3427V5.16131V27.7291V28.5477C13.9226 30.9426 15.8704 32.8904 18.2653 32.8904H19.0839H22.4792H27.5596V34.9347H27.1804C23.6798 34.9347 20.8307 37.7828 20.8307 41.2843V43.5862C20.8307 47.0868 23.6789 49.9358 27.1804 49.9358H37.6987H38.0293V54.837C38.0293 55.7191 38.6878 56.4394 39.5386 56.5533V58.1871C27.5944 59.3659 22.9003 65.1448 21.4806 67.4658C18.8438 67.9764 16.8447 70.3 16.8447 73.0838C16.8447 76.2408 19.4136 78.8097 22.5706 78.8097C25.7276 78.8097 28.2965 76.2408 28.2965 73.0838C28.2965 70.9211 27.0908 69.036 25.317 68.0625C27.0873 65.9321 31.2177 62.502 39.8361 61.6486C40.1484 62.1122 40.6782 62.4167 41.2793 62.4167H42.2502V67.6319C39.9414 68.3705 38.2641 70.5349 38.2641 73.0847C38.2641 76.2416 40.833 78.8106 43.99 78.8106C47.147 78.8106 49.7159 76.2416 49.7159 73.0847C49.7159 70.534 48.0387 68.3705 45.7299 67.6319V62.4167H46.7007C47.3036 62.4167 47.8343 62.1096 48.1466 61.6433C57.1895 62.4993 62.0237 66.0321 64.1176 68.0869C62.3656 69.0673 61.1773 70.9385 61.1773 73.0847C61.1773 76.2416 63.7462 78.8106 66.9031 78.8106C70.0601 78.8106 72.629 76.2416 72.629 73.0847C72.6273 70.3827 70.7421 68.1165 68.2185 67.5197ZM22.5706 75.3326C21.3327 75.3326 20.3244 74.3252 20.3244 73.0864C20.3244 71.8485 21.3318 70.8411 22.5706 70.8411C23.8094 70.8411 24.8167 71.8485 24.8167 73.0864C24.8167 74.3243 23.8085 75.3326 22.5706 75.3326ZM43.9892 75.3326C42.7513 75.3326 41.743 74.3252 41.743 73.0864C41.743 71.8485 42.7504 70.8411 43.9892 70.8411C45.2279 70.8411 46.2353 71.8485 46.2353 73.0864C46.2353 74.3243 45.2279 75.3326 43.9892 75.3326ZM65.1624 41.2869V43.5888C65.1624 45.1712 63.8758 46.4587 62.2934 46.4587H43.355C43.7943 45.5957 44.0483 44.6223 44.0483 43.5888V41.2869C44.0483 40.2535 43.7952 39.28 43.355 38.417H62.2925C63.8749 38.417 65.1624 39.7045 65.1624 41.2869ZM45.6446 5.16391V27.7317C45.6446 28.659 44.8904 29.4141 43.9622 29.4141H34.5565H29.2986H26.7341C26.7906 29.1349 26.8211 28.8469 26.8211 28.5511V4.34533C26.8211 4.04955 26.7906 3.7616 26.7341 3.48235H43.9622C44.8904 3.48148 45.6446 4.2357 45.6446 5.16391ZM19.083 29.4132C18.1557 29.4132 17.4006 28.659 17.4006 27.7308V5.16306C17.4006 4.23572 18.1548 3.4806 19.083 3.4806H22.4784C22.9542 3.4806 23.3413 3.86772 23.3413 4.34358V28.5494C23.3413 29.0253 22.9542 29.4124 22.4784 29.4124L19.083 29.4132ZM31.0385 32.893H32.8166V34.9373H31.0385V32.893ZM27.1804 46.4578C25.5979 46.4578 24.3104 45.1712 24.3104 43.5879V41.2861C24.3104 39.7037 25.5979 38.4162 27.1804 38.4162H29.2995H34.5574H37.6987C39.2811 38.4162 40.5686 39.7028 40.5686 41.2861V43.5879C40.5686 45.1703 39.2811 46.4578 37.6987 46.4578H27.1804ZM46.4685 49.9375V53.0989H41.509V49.9375H46.4685ZM43.0183 56.5786H44.9591V57.9896C44.6364 57.9835 44.3189 57.974 43.9883 57.974C43.6568 57.974 43.3402 57.9844 43.0174 57.9905L43.0183 56.5786ZM66.9023 75.3326C65.6644 75.3326 64.6561 74.3252 64.6561 73.0864C64.6561 71.8485 65.6635 70.8411 66.9023 70.8411C68.141 70.8411 69.1484 71.8485 69.1484 73.0864C69.1476 74.3243 68.1402 75.3326 66.9023 75.3326Z" fill="black"/>
<path d="M24.3059 60.678C24.3059 59.7176 23.5264 58.9382 22.566 58.9382H3.47972V16.1445H10.4966C11.457 16.1445 12.2365 15.3651 12.2365 14.4047C12.2365 13.4443 11.457 12.6648 10.4966 12.6648H1.73986C0.779458 12.6648 0 13.4443 0 14.4047V60.678C0 61.6384 0.779458 62.4179 1.73986 62.4179H22.566C23.5273 62.4179 24.3059 61.6384 24.3059 60.678Z" fill="black"/>
<path d="M78.2619 12.6648H53.02C52.0596 12.6648 51.2802 13.4443 51.2802 14.4047C51.2802 15.3651 52.0596 16.1445 53.02 16.1445H76.5221V58.9382H68.2934C67.333 58.9382 66.5535 59.7176 66.5535 60.678C66.5535 61.6384 67.333 62.4179 68.2934 62.4179H78.2619C79.2223 62.4179 80.0018 61.6384 80.0018 60.678V14.4047C80.0018 13.4434 79.2223 12.6648 78.2619 12.6648Z" fill="black"/>
</svg>
