<svg width="80" height="80" viewBox="0 0 80 80" fill="none" xmlns="http://www.w3.org/2000/svg">
<path d="M41.0625 0.439947C40.4767 -0.146649 39.5243 -0.146649 38.9384 0.439947L0.440134 38.9375C0.158478 39.2192 0 39.6015 0 39.9995C0 40.3976 0.158478 40.7799 0.440134 41.0616L21.2391 61.8606V66.0576V71.4594C21.2391 72.2886 21.9121 72.9616 22.7413 72.9616H26.4044C27.2335 72.9616 27.9065 72.2886 27.9065 71.4594V68.5279L38.9384 79.5599C39.2321 79.8535 39.6159 80 40.0005 80C40.385 80 40.7696 79.8535 41.0625 79.5599L52.3258 68.2959V71.4594C52.3258 72.2886 52.9987 72.9616 53.8279 72.9616H57.491C58.3202 72.9616 58.9931 72.2886 58.9931 71.4594V66.2574C59.0021 66.1913 59.0134 66.126 59.0134 66.0576V61.6082L79.5601 41.0616C80.1466 40.475 80.1466 39.5241 79.5601 38.9375L41.0625 0.439947ZM24.2435 55.9398C25.0374 55.6979 25.7487 55.2691 26.3307 54.705L28.4293 59.7065V64.5555H24.2435V55.9398ZM49.3229 57.9016H30.9304L29.6971 54.9634H50.5555L49.3229 57.9016ZM31.4336 60.9059H48.6432V64.5555H31.4336V60.9059ZM51.6468 64.5555V60.0828C51.664 60.0482 51.6911 60.0212 51.7061 59.9851L53.9218 54.705C54.5031 55.2683 55.2152 55.6972 56.0091 55.939V64.5547H51.6468V64.5555ZM57.5112 53.16C56.32 53.16 55.3504 52.1911 55.3504 50.9991C55.3504 50.9976 55.3504 50.9969 55.3504 50.9954C55.3526 49.8057 56.3208 48.8383 57.5105 48.8383C58.7017 48.8383 59.6714 49.8079 59.6714 50.9984C59.6721 52.1904 58.7025 53.16 57.5112 53.16ZM56.0954 46.036C54.0412 46.6233 52.5098 48.4507 52.3633 50.6544L51.812 51.968C51.782 51.9665 51.7534 51.959 51.7234 51.959H28.436L27.8885 50.6544C27.7443 48.4808 26.2549 46.6707 24.2427 46.0578V37.8935C24.2427 29.1118 31.387 21.9675 40.1687 21.9675C48.9504 21.9675 56.0947 29.1118 56.0947 37.8935L56.0954 46.036ZM22.7413 48.8383C23.9318 48.8383 24.8999 49.8057 24.9014 50.9954C24.9014 50.9969 24.9014 50.9976 24.9014 50.9991C24.9014 52.1904 23.9318 53.16 22.7406 53.16C21.5493 53.16 20.5804 52.1904 20.5804 50.9991C20.5804 49.8079 21.5501 48.8383 22.7413 48.8383ZM24.2435 69.9573V67.5598H24.9022V69.9573H24.2435ZM40.0005 76.373L31.1865 67.5598H48.8137L40.0005 76.373ZM55.3301 69.9573V67.5598H55.9888V69.9573H55.3301ZM59.0134 57.3601V55.9398C61.1307 55.2946 62.6764 53.3245 62.6764 50.9991C62.6764 48.7053 61.1728 46.7585 59.0998 46.0871V37.8942C59.0998 27.4564 50.6073 18.9639 40.1695 18.9639C29.7317 18.9639 21.2391 27.4557 21.2391 37.8942V46.0585C19.1218 46.7037 17.5769 48.6738 17.5769 50.9991C17.5769 53.3245 19.1226 55.2946 21.2391 55.9398V57.6124L3.62699 39.9995L40.0005 3.62604L76.374 39.9995L59.0134 57.3601Z" fill="black"/>
</svg>
