<svg width="80" height="80" viewBox="0 0 80 80" fill="none" xmlns="http://www.w3.org/2000/svg">
<path d="M21.0874 57.9247H22.6918L20.8401 62.4948C20.6353 62.9994 20.6951 63.5735 20.9998 64.0256C21.3044 64.4777 21.8139 64.748 22.3585 64.748H29.312C29.9909 64.748 30.5995 64.3294 30.8419 63.6947L33.0483 57.9247H47.8783L49.5581 63.5768C49.7645 64.2713 50.4033 64.748 51.1281 64.748H58.0808C58.6041 64.748 59.0955 64.4982 59.4035 64.0756C59.7123 63.6529 59.7999 63.1083 59.641 62.6103L58.1414 57.9239H58.9096C62.0383 57.9239 64.5838 55.3784 64.5838 52.2498V39.9833C64.5838 37.4247 62.8802 35.2576 60.5477 34.5524V20.4817C60.5477 18.3948 58.8498 16.697 56.763 16.697H23.2348C21.148 16.697 19.4502 18.3948 19.4502 20.4817V34.5541C17.1184 35.2592 15.4141 37.4255 15.4141 39.985V52.2514C15.4132 55.3792 17.9588 57.9247 21.0874 57.9247ZM53.7736 54.6487H49.0994H31.9197H26.2226C26.565 53.9189 26.7615 53.1081 26.7615 52.2506V49.0187H53.2355V52.2506C53.2346 53.1089 53.432 53.9189 53.7736 54.6487ZM28.1834 61.4719H24.7885L26.2259 57.9247H29.5388L28.1834 61.4719ZM55.8359 61.4719H52.3493L51.2952 57.9247H54.7007L55.8359 61.4719ZM61.3069 39.985V52.2514C61.3069 53.5733 60.2315 54.6495 58.9088 54.6495C57.5861 54.6495 56.5107 53.5741 56.5107 52.2514V39.985C56.5107 38.6631 57.5861 37.5869 58.9088 37.5869C60.2315 37.5869 61.3069 38.6631 61.3069 39.985ZM23.234 19.9731H56.7622C57.0423 19.9731 57.2708 20.2016 57.2708 20.4817V34.5541C54.939 35.2592 53.2347 37.4255 53.2347 39.985V45.7435H26.7607V39.985C26.7607 37.4264 25.0572 35.2592 22.7246 34.5541V20.4817C22.7254 20.2016 22.9539 19.9731 23.234 19.9731ZM18.6893 39.985C18.6893 38.6631 19.7647 37.5869 21.0874 37.5869C22.4101 37.5869 23.4855 38.6623 23.4855 39.985V52.2514C23.4855 53.5733 22.4101 54.6495 21.0874 54.6495C19.7647 54.6495 18.6893 53.5741 18.6893 52.2514V39.985Z" fill="black"/>
<path d="M32.9315 28.4921C34.0544 28.4921 34.9643 27.5822 34.9643 26.4593C34.9643 25.3364 34.0544 24.4265 32.9315 24.4265C31.8086 24.4265 30.8987 25.3364 30.8987 26.4593C30.8987 27.5822 31.8086 28.4921 32.9315 28.4921Z" fill="black"/>
<path d="M47.066 28.4921C48.1889 28.4921 49.0988 27.5822 49.0988 26.4593C49.0988 25.3364 48.1889 24.4265 47.066 24.4265C45.9431 24.4265 45.0332 25.3364 45.0332 26.4593C45.0332 27.5822 45.9431 28.4921 47.066 28.4921Z" fill="black"/>
<path d="M40.002 35.3417C41.1249 35.3417 42.0348 34.4318 42.0348 33.3089C42.0348 32.186 41.1249 31.2761 40.002 31.2761C38.8792 31.2761 37.9692 32.186 37.9692 33.3089C37.9692 34.4318 38.88 35.3417 40.002 35.3417Z" fill="black"/>
<path d="M32.9315 42.0314C34.0544 42.0314 34.9643 41.1215 34.9643 39.9986C34.9643 38.8757 34.0544 37.9658 32.9315 37.9658C31.8086 37.9658 30.8987 38.8757 30.8987 39.9986C30.8987 41.1215 31.8086 42.0314 32.9315 42.0314Z" fill="black"/>
<path d="M47.066 42.0314C48.1889 42.0314 49.0988 41.1215 49.0988 39.9986C49.0988 38.8757 48.1889 37.9658 47.066 37.9658C45.9431 37.9658 45.0332 38.8757 45.0332 39.9986C45.0332 41.1215 45.9431 42.0314 47.066 42.0314Z" fill="black"/>
<path d="M40 80C62.0561 80 80.0008 62.0561 80.0008 40C80.0008 17.9439 62.0561 0 40 0C17.9438 0 0 17.9439 0 40C0 62.0561 17.9438 80 40 80ZM40 3.27607C60.2502 3.27607 76.7247 19.7506 76.7247 40C76.7247 60.2494 60.2502 76.7239 40 76.7239C19.7498 76.7239 3.27607 60.2494 3.27607 40C3.27607 19.7506 19.7498 3.27607 40 3.27607Z" fill="black"/>
</svg>
