<svg width="102" height="62" viewBox="0 0 102 62" fill="none" xmlns="http://www.w3.org/2000/svg">
<path d="M97.7629 31.899C95.4048 30.3146 92.4299 30.0113 89.8079 31.0825C88.9812 31.421 88.068 31.7671 87.0708 32.1141V13.1083C87.0708 5.87994 81.1901 0 73.9626 0H27.5926C20.3643 0 14.4844 5.87994 14.4844 13.1083V32.1141C13.4863 31.7671 12.5739 31.421 11.7473 31.0825C9.12529 30.0113 6.15046 30.3154 3.79227 31.899C1.41811 33.4927 0 36.1525 0 39.0106C0 41.9652 1.47189 44.657 3.93761 46.2095C6.13954 47.5965 9.5445 49.3473 14.4844 50.9721V60.2259C14.4844 61.1534 15.2371 61.9062 16.1646 61.9062H22.4117C23.3391 61.9062 24.0919 61.1534 24.0919 60.2259V53.4555C31.0287 54.8307 39.7944 55.7876 50.778 55.7876C61.7213 55.7876 70.4618 54.8374 77.3869 53.4706V60.2259C77.3869 61.1534 78.1396 61.9062 79.0671 61.9062H85.3915C86.3189 61.9062 87.0717 61.1534 87.0717 60.2259V50.9721C92.0115 49.3473 95.4165 47.5965 97.6185 46.2095C100.084 44.6561 101.557 41.9644 101.557 39.0106C101.555 36.1525 100.137 33.4936 97.7629 31.899ZM17.8448 13.1091C17.8448 7.73491 22.2176 3.36129 27.5926 3.36129H73.9626C79.3376 3.36129 83.7104 7.73407 83.7104 13.1091V33.181C76.4905 35.2662 65.8421 37.1136 50.7772 37.1136C35.7123 37.1136 25.0647 35.2662 17.8448 33.181V13.1091ZM20.7306 58.5457H17.844V51.9878C18.7622 52.2415 19.7241 52.4876 20.7306 52.7271V58.5457ZM83.7096 58.5457H80.7456V52.7447C81.779 52.5002 82.7686 52.2474 83.7096 51.9878V58.5457ZM95.8257 43.3666C93.6388 44.7443 90.1885 46.5019 85.0655 48.1023C84.9504 48.125 84.8395 48.1577 84.7345 48.2022C77.2802 50.489 66.3688 52.428 50.7772 52.428C38.9518 52.428 29.8189 51.3123 22.8426 49.7758C22.7914 49.7623 22.7401 49.7497 22.6864 49.7405C20.5281 49.2608 18.5774 48.7416 16.8199 48.2022C16.714 48.1577 16.6031 48.1241 16.488 48.1014C11.3659 46.501 7.91468 44.7435 5.72787 43.3657C4.24424 42.4315 3.3596 40.8034 3.3596 39.0097C3.3596 37.2463 4.19973 35.672 5.66488 34.6882C6.5386 34.101 7.5232 33.8019 8.52041 33.8019C9.1757 33.8019 9.83688 33.9313 10.4745 34.1925C11.9044 34.7773 13.5846 35.3838 15.5068 35.9811C15.6126 36.0265 15.7235 36.0593 15.8395 36.082C23.3366 38.3704 34.6059 40.4724 50.7763 40.4724C66.9468 40.4724 78.2169 38.3704 85.7141 36.082C85.83 36.0593 85.9409 36.0257 86.0467 35.9811C87.9689 35.3847 89.6491 34.7773 91.079 34.1925C92.6887 33.5347 94.4403 33.7145 95.8895 34.6882C97.3546 35.672 98.1947 37.2463 98.1947 39.0097C98.1947 40.8042 97.3084 42.4315 95.8257 43.3666Z" fill="black"/>
<path d="M52.4544 32.1256V9.00493C52.4544 8.07745 51.7017 7.32471 50.7742 7.32471C49.8467 7.32471 49.094 8.07745 49.094 9.00493V32.1256C49.094 33.0531 49.8467 33.8059 50.7742 33.8059C51.7017 33.8059 52.4544 33.0531 52.4544 32.1256Z" fill="black"/>
<path d="M30.4213 25.8987H32.8635V22.0535H37.7479V20.0944H32.8635V17.3052H38.3965V15.3452H30.4213V25.8987Z" fill="black"/>
<path d="M72.7158 20.622C72.7158 17.4253 70.3492 15.3452 66.8972 15.3452H62.1027V25.8987H66.8972C70.3492 25.8987 72.7158 23.8177 72.7158 20.622ZM64.5449 23.8934V17.3506H66.7762C68.8715 17.3506 70.2433 18.6023 70.2433 20.6228C70.2433 22.6433 68.8715 23.8942 66.7762 23.8942L64.5449 23.8934Z" fill="black"/>
</svg>
