<svg width="80" height="80" viewBox="0 0 80 80" fill="none" xmlns="http://www.w3.org/2000/svg">
<path d="M49.2731 40H30.7269C29.0202 40.0031 27.3351 40.3776 25.7903 41.0971C24.2455 41.8165 22.8789 42.8634 21.7867 44.1639C20.6945 45.4643 19.9035 46.9867 19.4694 48.6234C19.0354 50.2601 18.9689 51.9714 19.2746 53.6364H60.7155C61.021 51.9722 60.9548 50.2618 60.5213 48.6258C60.0878 46.9897 59.2977 45.4679 58.2066 44.1677C57.1155 42.8674 55.7501 41.8203 54.2065 41.1002C52.663 40.3801 50.979 40.0045 49.2731 40Z" stroke="black" stroke-width="3" stroke-miterlimit="10" stroke-linecap="round"/>
<path d="M53.1018 40.5687C54.4149 37.1914 56.7339 34.2867 59.7528 32.2381C62.7718 30.1894 66.3487 29.093 70.0115 29.0938H74.7576C75.1832 29.0929 75.5918 29.2588 75.8936 29.5551C76.1955 29.8514 76.3661 30.2539 76.3679 30.6742C76.3688 31.0676 76.2208 31.4471 75.953 31.7382C75.6852 32.0294 75.3169 32.2112 74.9203 32.2479L71.276 32.6096L65.9773 48.6585C64.1916 54.0721 60.717 58.7887 56.0512 62.1324C55.8715 62.2596 55.7122 62.3869 55.5088 62.5074C54.491 63.2024 53.4263 63.8278 52.3221 64.3792C48.5018 66.2841 44.282 67.2762 40.0026 67.2756C35.7211 67.2775 31.4993 66.2829 27.6797 64.3725C26.5735 63.8252 25.5075 63.202 24.4896 62.5074C19.5553 59.1523 15.8774 54.2851 14.0244 48.6585L8.72574 32.6096L5.08141 32.2479C4.6861 32.2096 4.31944 32.0272 4.05303 31.7362C3.78662 31.4452 3.63958 31.0665 3.64063 30.6742C3.64063 30.2551 3.80921 29.853 4.10929 29.5567C4.40937 29.2603 4.81638 29.0938 5.24076 29.0938H9.98686C13.5518 29.091 17.0377 30.1315 20.0045 32.0839C23.14 34.1347 25.5493 37.1009 26.8965 40.5687" stroke="black" stroke-width="3" stroke-miterlimit="10" stroke-linecap="round"/>
<path d="M20.0748 31.5731L20.5614 28.4156L20.2911 26.8654C19.7957 24.0141 19.9339 21.0898 20.696 18.297C21.4581 15.5043 22.8257 12.9107 24.7031 10.6976C26.5805 8.48462 28.9223 6.70569 31.5646 5.48536C34.207 4.26502 37.086 3.63275 40.0002 3.63281C45.2975 3.63458 50.3779 5.72216 54.1271 9.43774C57.8763 13.1533 59.9884 18.1935 60 23.453C60.0002 24.5343 59.912 25.6138 59.7364 26.6809L59.2092 29.8786L59.5471 31.8146" stroke="black" stroke-width="3" stroke-miterlimit="10" stroke-linecap="round"/>
<path d="M40.0057 25.4567C41.0098 25.4567 41.8239 24.6426 41.8239 23.6385C41.8239 22.6343 41.0098 21.8203 40.0057 21.8203C39.0015 21.8203 38.1875 22.6343 38.1875 23.6385C38.1875 24.6426 39.0015 25.4567 40.0057 25.4567Z" stroke="black" stroke-width="2.5" stroke-miterlimit="10" stroke-linecap="round"/>
<path d="M27.2741 64.5346L26.9438 75.2723C26.9362 75.565 26.8268 75.8429 26.6389 76.0467C26.4511 76.2504 26.1996 76.3639 25.938 76.3629C25.677 76.3623 25.4263 76.2482 25.2387 76.0448C25.0512 75.8414 24.9414 75.5645 24.9324 75.2723L24.5469 62.7266C25.4171 63.3999 26.3284 64.004 27.2741 64.5346Z" stroke="black" stroke-width="2.5" stroke-miterlimit="10" stroke-linecap="round"/>
<path d="M55.4538 62.7266L55.0709 75.2723C55.0626 75.5648 54.9528 75.8422 54.7649 76.0457C54.577 76.2493 54.3257 76.3631 54.0641 76.3629C53.8023 76.3639 53.5505 76.2504 53.3625 76.0467C53.1744 75.8429 53.0649 75.565 53.0573 75.2723L52.7266 64.5411C53.6716 64.0065 54.5828 63.4003 55.4538 62.7266Z" stroke="black" stroke-width="2.5" stroke-miterlimit="10" stroke-linecap="round"/>
</svg>
